<svg width="32" height="16" viewBox="0 0 32 16" fill="none" xmlns="http://www.w3.org/2000/svg">
<path d="M13.6934 8H18.3067C19.5467 8 20.4801 6.89333 20.2801 5.66667L19.8801 3.28C19.5601 1.38667 17.9201 0 16.0001 0C14.0801 0 12.4401 1.38667 12.1201 3.29333L11.7201 5.68C11.5201 6.89333 12.4534 8 13.6934 8Z" fill="black"/>
<path d="M2.21324 6.81335C2.03991 7.16002 1.97324 7.57335 2.07991 7.98669C2.29324 8.90669 3.09324 9.36002 4.11991 9.32002C4.11991 9.32002 6.10658 9.32002 6.71991 9.32002C7.82658 9.32002 8.73324 8.54669 8.73324 7.60002C8.73324 7.41335 8.69324 7.24002 8.63991 7.06669C8.62658 7.02669 8.62658 7.00002 8.65324 6.96002C8.77324 6.74669 8.83991 6.50669 8.83991 6.25335C8.83991 5.84002 8.65324 5.45335 8.35991 5.16002C8.31991 5.12002 8.31991 5.08002 8.33324 5.02669C8.42658 4.76002 8.42658 4.45335 8.34658 4.16002C8.13324 3.58669 7.61324 3.20002 7.02658 3.17335C6.98658 3.17335 6.95991 3.16002 6.93324 3.13335C6.70658 2.85335 6.29324 2.66669 5.82658 2.66669C5.42658 2.66669 5.06658 2.80002 4.82658 3.01335C4.78658 3.05335 4.74658 3.05335 4.70658 3.04002C4.51991 2.96002 4.30658 2.92002 4.09324 2.92002C3.22658 2.92002 2.51991 3.57335 2.43991 4.41335C2.43991 4.44002 2.42658 4.46669 2.39991 4.49335C2.01324 4.84002 1.78658 5.36002 1.85324 5.89335C1.89324 6.18669 2.01324 6.46669 2.18658 6.69335C2.22658 6.72002 2.22658 6.77335 2.21324 6.81335Z" fill="black"/>
<path d="M21.6533 10.2C20.0933 9.50667 18.1733 9 16 9C13.8267 9 11.9067 9.52 10.3467 10.2C8.90667 10.84 8 12.28 8 13.8533V16H24V13.8533C24 12.28 23.0933 10.84 21.6533 10.2Z" fill="black"/>
<path d="M1.62667 11.44C0.64 11.8667 0 12.8267 0 13.9067V16H6V13.8534C6 12.7467 6.30667 11.7067 6.84 10.8C6.34667 10.72 5.85333 10.6667 5.33333 10.6667C4.01333 10.6667 2.76 10.9467 1.62667 11.44Z" fill="black"/>
<path d="M30.3734 11.44C29.24 10.9467 27.9867 10.6667 26.6667 10.6667C26.1467 10.6667 25.6534 10.72 25.16 10.8C25.6934 11.7067 26 12.7467 26 13.8534V16H32V13.9067C32 12.8267 31.36 11.8667 30.3734 11.44Z" fill="black"/>
<path d="M29.3334 6.66665V5.99998C29.3334 4.53331 28.1334 3.33331 26.6667 3.33331H24C23.44 3.33331 23.1334 3.97331 23.48 4.41331L24.4134 5.25331C24.16 5.66665 24 6.14665 24 6.66665C24 8.13331 25.2 9.33331 26.6667 9.33331C28.1334 9.33331 29.3334 8.13331 29.3334 6.66665Z" fill="black"/>
</svg>
